<svg width="1159" height="824" viewBox="0 0 1159 824" fill="none" xmlns="http://www.w3.org/2000/svg">
<path d="M631.045 122.146C675.736 134.603 708.208 173.59 734.19 212.025C757.354 246.291 737.789 303.161 770.514 328.459C886.734 418.3 1212.32 400.907 1151.5 534.618C1086.46 677.628 834.597 448.845 688.953 507.782C617.867 536.548 708.615 670.9 662.79 732.383C617.079 793.712 531.834 817.872 455.409 821.126C369.377 824.788 213.859 837.668 211.184 751.608C206.937 614.952 492.9 549.013 442.996 421.723C385.762 275.735 100.138 379.951 14.0853 248.864C-39.8971 166.631 72.0103 23.749 168.195 3.11053C286.593 -22.2944 378.372 115.373 495.649 145.534C540.775 157.139 586.162 109.635 631.045 122.146Z" fill="#EEF8FF"/>
</svg>
